<svg width="57" height="54" viewBox="0 0 57 54" fill="none" xmlns="http://www.w3.org/2000/svg">
<g clip-path="url(#clip0_196_952)">
<path d="M14.4202 9.08993C14.4202 7.83972 14.4147 6.72881 14.4202 5.61791C14.4421 2.35576 16.7684 0.0109276 20.0352 0.00911836C30.504 -0.00173737 40.9727 -0.00173737 51.4414 0.00911836C54.6936 0.0127369 56.9926 2.31415 56.9944 5.54916C57.0017 19.8425 57.0017 34.1341 56.9944 48.4275C56.9944 51.7131 54.6936 53.991 51.372 53.9946C40.9343 54.0037 30.4948 54.0037 20.0572 53.9946C16.7849 53.991 14.4384 51.6516 14.422 48.4039C14.4074 45.6593 14.4183 42.9164 14.4183 40.1717C14.4183 39.8478 14.4183 39.524 14.4183 39.1078H13.341C9.38392 39.1078 5.42871 39.1096 1.47167 39.1078C0.193434 39.1078 -0.00195312 38.9088 -0.00195312 37.6351C-0.00012708 28.5868 -0.00012708 19.5404 -0.00012708 10.4939C-0.00012708 9.2781 0.191608 9.09174 1.4388 9.09174C5.39584 9.08993 9.35105 9.09174 13.3081 9.09174H14.4183L14.4202 9.08993ZM25.444 11.4836C26.9395 9.4536 28.9683 8.91986 31.3184 8.94157C37.2202 8.99766 43.1238 8.95966 49.0274 8.96147C50.4572 8.96147 50.6032 9.10622 50.6032 10.4976C50.6032 21.4709 50.6032 32.446 50.6032 43.4194C50.6032 44.8957 50.4772 45.026 49.0091 45.026C41.6757 45.026 34.3441 45.026 27.0107 45.026C26.5853 45.026 26.158 45.0314 25.7325 45.0242C24.6679 45.0043 24.4488 44.7836 24.4214 43.7541C24.405 43.1226 24.4232 42.484 24.3356 41.8598C24.1511 40.5679 23.0811 39.3032 21.8156 39.2091C19.9841 39.0735 18.1325 39.1748 16.2206 39.1748C16.2206 42.2017 16.217 45.1816 16.2206 48.1615C16.2261 50.7759 17.6833 52.2433 20.3457 52.2469C30.5989 52.2595 40.854 52.2559 51.1072 52.2414C51.6751 52.2414 52.2741 52.1836 52.8036 51.9972C54.4781 51.411 55.225 50.1336 55.225 47.9824C55.2268 33.993 55.225 20.0054 55.225 6.01595C55.225 5.68485 55.2049 5.35375 55.1848 5.02266C55.1172 3.92261 54.5585 3.09395 53.7002 2.44261C52.8511 1.79669 51.8523 1.74603 50.8388 1.74603C40.7682 1.74965 30.6957 1.74603 20.6251 1.74965C20.2598 1.74965 19.8946 1.76051 19.5331 1.80031C17.9882 1.96677 16.794 2.77733 16.4836 4.24285C16.1567 5.79341 16.2371 7.42901 16.1366 9.09174C17.5518 9.09174 18.7369 9.1424 19.9165 9.08089C22.148 8.96509 24.0836 9.47893 25.4476 11.4836H25.444ZM1.9227 37.2587H3.12241C8.47455 37.2587 13.8285 37.2569 19.1807 37.2587C20.9008 37.2587 22.6647 37.0308 24.2224 38.3425C24.2534 37.9155 24.2844 37.6839 24.2844 37.4541C24.2863 29.7393 24.2918 22.0245 24.2808 14.3115C24.279 12.2146 22.988 10.9625 20.8588 10.9607C14.8675 10.9553 8.87628 10.9571 2.88502 10.9607C2.56547 10.9607 2.24773 10.9951 1.9227 11.0132V37.2587ZM48.6676 37.0724C48.6968 36.7322 48.7297 36.526 48.7297 36.3197C48.7315 28.0893 48.7242 19.8588 48.7462 11.6284C48.748 10.9227 48.4942 10.778 47.8423 10.7798C42.1523 10.8015 36.4623 10.816 30.7724 10.7816C27.9858 10.7653 26.2548 12.685 26.2876 15.2198C26.3826 22.6343 26.3205 30.0523 26.3223 37.4686C26.3223 37.7563 26.3479 38.0458 26.3625 38.3642C29.6037 36.678 29.4777 37.0995 32.6167 37.0778C37.6073 37.0452 42.596 37.0688 47.5866 37.0688H48.6658L48.6676 37.0724ZM48.7772 38.9975C48.611 38.9721 48.496 38.9378 48.3809 38.9378C42.2673 38.9359 36.1519 38.8979 30.0383 38.9812C29.2093 38.992 28.2853 39.4805 27.5896 39.9926C26.5524 40.7579 26.116 41.8996 26.2511 43.2059H48.779V38.9957L48.7772 38.9975Z" fill="black"/>
<path d="M25.4438 11.4851C24.0816 9.48226 22.1442 8.96843 19.9127 9.08241C18.7331 9.14393 17.548 9.09327 16.1328 9.09327C16.2332 7.43053 16.1529 5.79493 16.4798 4.24438C16.7884 2.77704 17.9826 1.96648 19.5293 1.80184C19.8908 1.76384 20.2578 1.75118 20.6212 1.75118C30.6919 1.74937 40.7643 1.75118 50.835 1.74756C51.8503 1.74756 52.8473 1.79822 53.6964 2.44413C54.5546 3.09729 55.1134 3.92413 55.181 5.02418C55.201 5.35528 55.2211 5.68638 55.2211 6.01748C55.223 20.0069 55.2248 33.9945 55.2211 47.9839C55.2211 50.1351 54.4743 51.4125 52.7998 51.9987C52.2702 52.1833 51.6713 52.2412 51.1034 52.243C40.8502 52.2574 30.5951 52.2611 20.3418 52.2484C17.6795 52.2448 16.2223 50.7774 16.2168 48.163C16.2113 45.1831 16.2168 42.2032 16.2168 39.1763C18.1305 39.1763 19.9803 39.075 21.8118 39.2107C23.0773 39.3048 24.1473 40.5694 24.3318 41.8613C24.4212 42.4837 24.4011 43.1223 24.4176 43.7556C24.445 44.7851 24.6641 45.0058 25.7287 45.0257C26.1541 45.0348 26.5814 45.0275 27.0069 45.0275C34.3403 45.0275 41.6719 45.0275 49.0053 45.0275C50.4734 45.0275 50.5994 44.8973 50.5994 43.4209C50.5994 32.4476 50.5994 21.4724 50.5994 10.4991C50.5994 9.10774 50.4533 8.963 49.0235 8.963C43.1199 8.963 37.2182 8.99918 31.3146 8.9431C28.9644 8.92138 26.9357 9.45512 25.4402 11.4851H25.4438ZM35.7701 4.54472C35.0415 4.54472 34.3111 4.55376 33.5825 4.5411C33.0055 4.53205 32.6238 4.78716 32.5763 5.35347C32.5289 5.93425 32.9087 6.27982 33.4583 6.29068C34.9758 6.32325 36.4987 6.35401 38.0107 6.2563C38.3266 6.2364 38.606 5.65743 38.9018 5.33719C38.5859 5.07303 38.301 4.6388 37.9504 4.5809C37.2419 4.46149 36.4987 4.54472 35.7701 4.54291V4.54472ZM34.9575 49.2432C35.2406 49.2432 35.4232 49.2468 35.6058 49.2432C36.1664 49.2323 36.5498 49.0098 36.5754 48.4037C36.601 47.7939 36.2084 47.5551 35.6751 47.4791C35.467 47.4502 35.2497 47.461 35.0379 47.4683C34.3567 47.4918 33.4784 47.3235 33.451 48.3367C33.42 49.4711 34.375 49.1907 34.9593 49.2432H34.9575Z" fill="#E6E6E6"/>
<path d="M1.92285 37.2585V11.0129C2.24789 10.9948 2.56562 10.9605 2.88518 10.9605C8.87643 10.9568 14.8677 10.955 20.8589 10.9605C22.9881 10.9623 24.2791 12.2143 24.2809 14.3113C24.2901 22.0261 24.2864 29.7409 24.2846 37.4539C24.2846 37.6836 24.2536 37.9152 24.2225 38.3422C22.6649 37.0287 20.9009 37.2585 19.1808 37.2585C13.8287 37.2548 8.4747 37.2585 3.12256 37.2585H1.92285ZM18.0267 24.1031C19.2411 24.1031 20.4554 24.1194 21.6697 24.0959C22.3161 24.0832 22.9333 23.9131 22.9443 23.1189C22.9552 22.3137 22.3435 22.1473 21.6898 22.1437C19.2904 22.131 16.8928 22.1346 14.4933 22.1382C13.7976 22.1382 13.1421 22.3246 13.1658 23.146C13.1877 23.8969 13.8159 24.0941 14.4751 24.1013C15.6584 24.114 16.8435 24.1049 18.0267 24.1013V24.1031ZM17.3365 31.2209C18.5819 31.2209 19.8272 31.2028 21.0726 31.2281C21.7135 31.2408 22.1974 31.0218 22.2413 30.3741C22.2887 29.6793 21.7994 29.332 21.1402 29.3265C18.6202 29.3066 16.0984 29.3066 13.5785 29.3265C12.9321 29.332 12.4135 29.6504 12.45 30.3524C12.4829 30.9965 12.9558 31.239 13.6022 31.2281C14.8476 31.2064 16.093 31.2227 17.3383 31.2227L17.3365 31.2209ZM18.0925 14.9915C16.8161 14.9915 15.5415 15.0042 14.2651 14.9861C13.6004 14.9771 13.1731 15.2919 13.164 15.9161C13.1549 16.5475 13.6241 16.8985 14.245 16.9022C16.796 16.9202 19.3488 16.9257 21.8998 16.8967C22.5006 16.8895 22.9698 16.562 22.9443 15.889C22.9187 15.2159 22.4713 14.9807 21.8304 14.9861C20.585 14.9988 19.3397 14.9897 18.0943 14.9897L18.0925 14.9915ZM18.465 27.6403C19.5259 27.6403 20.585 27.6493 21.646 27.6367C22.2285 27.6294 22.6594 27.3924 22.6923 26.7555C22.727 26.0608 22.2467 25.755 21.6606 25.7441C19.5716 25.7062 17.4808 25.7098 15.3899 25.7369C14.7855 25.7441 14.3272 26.0626 14.3473 26.7393C14.3655 27.3671 14.7837 27.6312 15.3753 27.6367C16.4052 27.6457 17.4351 27.6385 18.465 27.6421V27.6403ZM7.35351 27.6439C7.35351 27.6439 7.35351 27.6385 7.35351 27.6367C8.41809 27.6367 9.48085 27.6439 10.5454 27.633C11.1444 27.6276 11.5461 27.3472 11.5644 26.7194C11.5826 26.0789 11.1334 25.7586 10.5801 25.7496C8.45279 25.7116 6.32362 25.7116 4.1981 25.7478C3.63933 25.7568 3.22665 26.0752 3.24308 26.7302C3.25952 27.3924 3.6722 27.6294 4.25471 27.6385C5.28825 27.6566 6.32179 27.6439 7.35534 27.6439H7.35351ZM18.7553 18.6029C17.7547 18.6029 16.754 18.6174 15.7551 18.5975C15.127 18.5848 14.6504 18.773 14.5938 19.446C14.539 20.1209 15.0192 20.4719 15.6036 20.4845C17.7236 20.5262 19.8473 20.5262 21.9674 20.4827C22.5626 20.4701 23.0064 20.0956 22.9388 19.4189C22.8767 18.7874 22.4421 18.592 21.8468 18.6011C20.8169 18.6156 19.7852 18.6047 18.7553 18.6047V18.6029ZM7.3736 18.6029C6.34006 18.6029 5.30651 18.6065 4.27297 18.6029C3.67038 18.5993 3.27595 18.82 3.24491 19.475C3.21387 20.1263 3.62473 20.4683 4.17984 20.4791C6.30719 20.5225 8.43453 20.5244 10.5619 20.4845C11.1553 20.4737 11.6173 20.1136 11.5589 19.4334C11.5041 18.8091 11.0786 18.5902 10.476 18.5975C9.44251 18.6119 8.40896 18.6011 7.37542 18.6029H7.3736ZM7.42107 24.0995C7.42107 24.0995 7.42107 24.0977 7.42107 24.0959C8.08941 24.0959 8.76139 24.123 9.4279 24.0886C10.0214 24.0579 10.5235 23.8299 10.5381 23.1388C10.5527 22.3897 10.0341 22.1581 9.3932 22.1491C8.05471 22.131 6.71622 22.1292 5.37773 22.1491C4.73861 22.1581 4.19263 22.4006 4.20906 23.1297C4.22367 23.8498 4.78974 24.0687 5.41425 24.0959C6.08258 24.1248 6.75274 24.1031 7.42107 24.1031V24.0995ZM7.37177 14.9897C6.67605 14.9897 5.98032 15.0006 5.2846 14.9861C4.67653 14.9753 4.17254 15.2648 4.24558 15.8311C4.29488 16.2146 4.78974 16.8189 5.12026 16.8443C6.62492 16.9546 8.14236 16.9311 9.6525 16.875C10.2149 16.8533 10.5874 16.4498 10.529 15.8274C10.4742 15.2593 10.1273 14.9861 9.55024 14.9897C8.82348 14.9934 8.09854 14.9897 7.37177 14.9897ZM6.67057 31.2172C7.40099 31.2172 8.14784 31.3095 8.85452 31.1792C9.23069 31.1087 9.79311 30.66 9.80224 30.3687C9.81319 30.0376 9.31651 29.4152 9.00973 29.3953C7.46673 29.2922 5.90911 29.2922 4.3661 29.3899C4.05567 29.4098 3.57907 29.996 3.54073 30.3596C3.48229 30.9241 3.94246 31.2426 4.57244 31.2227C5.27182 31.201 5.97119 31.2172 6.6724 31.2154L6.67057 31.2172Z" fill="#E90000"/>
<path d="M48.6658 37.0707H47.5866C42.596 37.0707 37.6072 37.0472 32.6166 37.0798C29.4777 37.0997 29.6037 36.6781 26.3624 38.3662C26.3478 38.0459 26.3223 37.7582 26.3223 37.4706C26.3204 30.0543 26.3825 22.638 26.2876 15.2217C26.2547 12.6869 27.9858 10.7673 30.7723 10.7836C36.4623 10.8161 42.1522 10.8017 47.8422 10.7818C48.4923 10.7799 48.7479 10.9247 48.7461 11.6303C48.7224 19.8608 48.7315 28.0912 48.7297 36.3217C48.7297 36.5279 48.6968 36.7342 48.6676 37.0743L48.6658 37.0707ZM42.8352 22.1405C42.8352 22.1405 42.8352 22.1441 42.8352 22.1459C41.5606 22.1459 40.286 22.1387 39.0114 22.1495C38.3614 22.1549 37.8282 22.4209 37.8391 23.1229C37.8501 23.8177 38.3924 24.0927 39.0334 24.0963C41.4912 24.109 43.9509 24.1126 46.4088 24.0963C47.0278 24.0927 47.5957 23.881 47.6176 23.1464C47.6413 22.3449 47.0497 22.1549 46.3887 22.1459C45.2054 22.1296 44.0221 22.1405 42.837 22.1405H42.8352ZM42.6763 16.9116C43.9217 16.9116 45.167 16.9243 46.4106 16.9062C47.0899 16.8971 47.6432 16.633 47.6121 15.864C47.5811 15.1331 47.0424 14.9775 46.3868 14.9811C43.9582 14.9956 41.5277 14.9992 39.0991 14.9793C38.3906 14.9739 37.8336 15.1801 37.8464 15.9346C37.8592 16.671 38.4362 16.9134 39.1247 16.9116C40.3098 16.908 41.493 16.9116 42.6781 16.9116H42.6763ZM42.0354 31.2195C43.2807 31.2195 44.5261 31.2014 45.7715 31.2267C46.4234 31.2394 46.8908 30.9825 46.9237 30.3492C46.9584 29.6581 46.4489 29.327 45.7934 29.3233C43.2716 29.3071 40.7498 29.3071 38.2299 29.3233C37.62 29.327 37.1233 29.6345 37.1251 30.2823C37.127 30.9843 37.6127 31.2358 38.2993 31.2249C39.5447 31.2032 40.79 31.2195 42.0354 31.2177V31.2195ZM43.1365 27.6353V27.6389C44.2011 27.6389 45.2657 27.6497 46.3302 27.6353C46.9164 27.628 47.3327 27.3856 47.3546 26.7324C47.3766 26.0775 46.942 25.759 46.3905 25.75C44.2613 25.7102 42.1322 25.712 40.003 25.7464C39.4424 25.7554 39.0078 26.0793 39.0188 26.718C39.0297 27.3512 39.4333 27.628 40.0322 27.6335C41.0657 27.6461 42.1011 27.6371 43.1347 27.6371L43.1365 27.6353ZM32.0177 27.6353C33.0823 27.6353 34.1469 27.6425 35.2096 27.6317C35.8086 27.6262 36.2139 27.3512 36.2304 26.7198C36.2468 26.0829 35.8104 25.7536 35.2516 25.7446C33.1243 25.7084 30.9933 25.7066 28.8659 25.7446C28.3127 25.7536 27.8817 26.0702 27.9 26.7234C27.9182 27.3765 28.3291 27.6226 28.9171 27.6317C29.9506 27.6461 30.9842 27.6353 32.0195 27.6317L32.0177 27.6353ZM43.4761 18.6033C42.4444 18.6033 41.4145 18.6196 40.3828 18.5979C39.7364 18.5834 39.205 18.8512 39.2872 19.4772C39.3365 19.8517 39.8788 20.4379 40.2185 20.4506C42.3677 20.5392 44.5225 20.5212 46.6735 20.4759C47.225 20.4651 47.6559 20.0942 47.6158 19.4681C47.5774 18.8512 47.183 18.5925 46.5676 18.5997C45.5359 18.6124 44.506 18.6033 43.4743 18.6033H43.4761ZM32.1127 18.6033C31.0791 18.6033 30.0437 18.6105 29.0102 18.5997C28.4277 18.5943 27.9767 18.7462 27.9054 19.4012C27.8324 20.0905 28.2615 20.4669 28.8586 20.4813C30.986 20.5266 33.117 20.5266 35.2443 20.4832C35.8414 20.4705 36.287 20.0942 36.2213 19.4157C36.1592 18.7806 35.7173 18.5906 35.1238 18.5997C34.1195 18.6142 33.117 18.6033 32.1127 18.6033ZM32.1309 22.1567C32.1309 22.1567 32.1309 22.1513 32.1309 22.1495C31.4041 22.1495 30.6774 22.1296 29.9524 22.1549C29.3407 22.1766 28.7856 22.486 28.9061 23.1121C28.9773 23.483 29.5251 24.0095 29.8922 24.0366C31.3366 24.1433 32.7938 24.1017 34.2455 24.0655C34.8225 24.0511 35.2388 23.7019 35.2297 23.0976C35.2206 22.4969 34.8152 22.1803 34.2199 22.1604C33.5242 22.1387 32.8285 22.1549 32.1327 22.1549L32.1309 22.1567ZM32.1254 14.9902C31.3987 14.9902 30.6719 14.9992 29.9451 14.9865C29.3298 14.9757 28.8386 15.2887 28.9116 15.8441C28.9627 16.2259 29.4667 16.8248 29.8027 16.8483C31.3074 16.955 32.8285 16.9297 34.3386 16.87C34.9065 16.8483 35.3557 16.3887 35.1841 15.8279C35.0781 15.4823 34.5833 15.0987 34.2071 15.0263C33.537 14.8961 32.8212 14.9902 32.1254 14.9883V14.9902ZM31.3475 31.2177C32.078 31.2177 32.8248 31.3117 33.5297 31.1797C33.904 31.1109 34.4628 30.6586 34.4701 30.3673C34.4792 30.0344 33.9862 29.4156 33.6794 29.3957C32.1382 29.2926 30.5824 29.2926 29.0394 29.3903C28.7363 29.4102 28.2962 29.991 28.2341 30.3655C28.1465 30.8938 28.5665 31.2267 29.1599 31.2213C29.8904 31.214 30.6189 31.2213 31.3494 31.2195L31.3475 31.2177Z" fill="#E90000"/>
<path d="M48.7755 38.9955V43.2057H26.2475C26.1124 41.9012 26.5488 40.7578 27.586 39.9924C28.2818 39.4804 29.2057 38.9919 30.0348 38.981C36.1484 38.896 42.2638 38.9358 48.3774 38.9376C48.4924 38.9376 48.6075 38.9702 48.7736 38.9973L48.7755 38.9955Z" fill="white"/>
<path d="M35.77 4.54482C36.4986 4.54482 37.2418 4.46159 37.9503 4.58101C38.3009 4.64071 38.5876 5.07313 38.9017 5.33729C38.6059 5.65753 38.3265 6.2365 38.0106 6.25641C36.4986 6.35411 34.9757 6.32516 33.4582 6.29078C32.9086 6.27812 32.5288 5.93435 32.5763 5.35357C32.6219 4.78545 33.0054 4.53215 33.5824 4.5412C34.311 4.55387 35.0396 4.54482 35.77 4.54482Z" fill="black"/>
<path d="M34.9583 49.2432C34.3739 49.1907 33.4189 49.4712 33.45 48.3368C33.4773 47.3217 34.3557 47.49 35.0368 47.4683C35.2486 47.4611 35.4659 47.4484 35.6741 47.4792C36.2091 47.5551 36.6017 47.794 36.5743 48.4037C36.5488 49.0098 36.1653 49.2324 35.6047 49.2432C35.4221 49.2468 35.2395 49.2432 34.9564 49.2432H34.9583Z" fill="black"/>
<path d="M18.0266 24.1054C16.8433 24.1054 15.6582 24.1144 14.4749 24.1017C13.8157 24.0945 13.1876 23.8973 13.1657 23.1464C13.1419 22.3232 13.7975 22.1405 14.4932 22.1387C16.8926 22.135 19.2902 22.1314 21.6896 22.1441C22.3434 22.1477 22.9551 22.3142 22.9441 23.1193C22.9332 23.9136 22.3178 24.0836 21.6696 24.0963C20.4552 24.118 19.2409 24.1036 18.0266 24.1036V24.1054Z" fill="black"/>
<path d="M17.3382 31.2192C16.0929 31.2192 14.8475 31.2047 13.6021 31.2246C12.9575 31.2354 12.4828 30.9948 12.4499 30.3489C12.4152 29.6469 12.932 29.3285 13.5784 29.323C16.0983 29.3031 18.6201 29.3031 21.14 29.323C21.7974 29.3285 22.2886 29.6758 22.2411 30.3706C22.1973 31.0183 21.7134 31.2373 21.0725 31.2246C19.8271 31.1993 18.5818 31.2174 17.3364 31.2174L17.3382 31.2192Z" fill="black"/>
<path d="M18.0926 14.9901C19.3379 14.9901 20.5833 14.9992 21.8287 14.9865C22.4696 14.9793 22.917 15.2163 22.9425 15.8894C22.9681 16.5624 22.5006 16.8899 21.898 16.8971C19.3471 16.9261 16.7942 16.9206 14.2433 16.9026C13.6224 16.8989 13.1531 16.5479 13.1622 15.9165C13.1714 15.2923 13.5987 14.9775 14.2633 14.9865C15.5398 15.0046 16.8143 14.9919 18.0907 14.9919L18.0926 14.9901Z" fill="black"/>
<path d="M18.465 27.6367C17.4352 27.6367 16.4053 27.644 15.3754 27.6349C14.7819 27.6295 14.3656 27.3653 14.3473 26.7375C14.3272 26.0609 14.7874 25.7442 15.39 25.7352C17.4808 25.708 19.5716 25.7044 21.6606 25.7424C22.2468 25.7533 22.727 26.059 22.6923 26.7538C22.6595 27.3925 22.2285 27.6295 21.646 27.6349C20.5869 27.6476 19.526 27.6386 18.465 27.6349V27.6367Z" fill="black"/>
<path d="M7.35394 27.6442C6.3204 27.6442 5.28686 27.6569 4.25331 27.6388C3.67081 27.628 3.25812 27.3909 3.24168 26.7306C3.22525 26.0738 3.63794 25.7572 4.19671 25.7481C6.32405 25.7119 8.45322 25.7119 10.5787 25.7499C11.1302 25.759 11.5812 26.0792 11.563 26.7197C11.5447 27.3475 11.1448 27.628 10.544 27.6334C9.48128 27.6442 8.4167 27.637 7.35211 27.637C7.35211 27.6388 7.35211 27.6424 7.35211 27.6442H7.35394Z" fill="black"/>
<path d="M18.7557 18.603C19.7856 18.603 20.8173 18.6139 21.8472 18.5994C22.4425 18.5904 22.8771 18.7858 22.9392 19.4172C23.0067 20.0939 22.563 20.4702 21.9677 20.4811C19.8477 20.5263 17.724 20.5245 15.6039 20.4829C15.0178 20.472 14.5393 20.121 14.5941 19.4444C14.6489 18.7713 15.1273 18.5831 15.7555 18.5958C16.7562 18.6157 17.7568 18.6012 18.7557 18.6012V18.603Z" fill="black"/>
<path d="M7.37337 18.603C8.40692 18.603 9.44046 18.6139 10.474 18.5994C11.0766 18.5903 11.5021 18.8093 11.5568 19.4353C11.6171 20.1156 11.1551 20.4756 10.5598 20.4865C8.43248 20.5263 6.30331 20.5245 4.17779 20.481C3.62268 20.4702 3.21182 20.1282 3.24286 19.4769C3.2739 18.8219 3.66833 18.6012 4.27092 18.6048C5.30446 18.6102 6.33801 18.6048 7.37155 18.6048L7.37337 18.603Z" fill="black"/>
<path d="M7.42128 24.0997C6.75113 24.0997 6.08097 24.1215 5.41446 24.0925C4.78995 24.0654 4.22388 23.8483 4.20927 23.1263C4.19466 22.399 4.74065 22.1548 5.37794 22.1457C6.71643 22.1276 8.05492 22.1294 9.39341 22.1457C10.0362 22.1548 10.553 22.3863 10.5383 23.1354C10.5256 23.8265 10.0216 24.0545 9.42811 24.0853C8.75978 24.1196 8.08962 24.0925 7.42128 24.0925C7.42128 24.0925 7.42128 24.0943 7.42128 24.0961V24.0997Z" fill="black"/>
<path d="M7.3722 14.9918C8.09896 14.9918 8.8239 14.9954 9.55067 14.9918C10.1277 14.9882 10.4746 15.2632 10.5294 15.8295C10.5897 16.4501 10.2172 16.8554 9.65293 16.8771C8.14279 16.9332 6.62535 16.9567 5.12068 16.8463C4.79017 16.8228 4.29349 16.2167 4.24601 15.8331C4.17479 15.2668 4.67695 14.9755 5.28503 14.9882C5.98075 15.0009 6.67647 14.9918 7.3722 14.9918Z" fill="black"/>
<path d="M6.67211 31.219C5.97273 31.219 5.27153 31.2028 4.57216 31.2245C3.94217 31.2444 3.48018 30.9241 3.54044 30.3614C3.57879 29.9978 4.05539 29.4116 4.36581 29.3917C5.90882 29.2921 7.46644 29.294 9.00945 29.3971C9.31622 29.417 9.81291 30.0394 9.80195 30.3705C9.79282 30.6636 9.2304 31.1123 8.85423 31.181C8.14938 31.3113 7.4007 31.219 6.67028 31.2208L6.67211 31.219Z" fill="black"/>
<path d="M42.835 22.1401C44.0182 22.1401 45.2015 22.1274 46.3866 22.1455C47.0477 22.1545 47.6393 22.3445 47.6156 23.146C47.5936 23.8806 47.0257 24.0905 46.4067 24.0959C43.9489 24.114 41.491 24.1104 39.0313 24.0959C38.3904 24.0923 37.848 23.8173 37.8371 23.1225C37.8261 22.4187 38.3593 22.1545 39.0094 22.1491C40.284 22.1382 41.5586 22.1455 42.8331 22.1455C42.8331 22.1455 42.8331 22.1419 42.8331 22.1401H42.835Z" fill="black"/>
<path d="M42.6767 16.9134C41.4916 16.9134 40.3083 16.9116 39.1232 16.9134C38.4348 16.9152 37.8596 16.6709 37.8449 15.9364C37.8322 15.1819 38.3891 14.9756 39.0976 14.9811C41.5262 15.001 43.9567 14.9973 46.3854 14.9829C47.0409 14.9793 47.5814 15.1349 47.6106 15.8658C47.6417 16.6347 47.0902 16.8989 46.4091 16.908C45.1637 16.9242 43.9184 16.9134 42.6748 16.9134H42.6767Z" fill="black"/>
<path d="M42.0352 31.2212C40.7899 31.2212 39.5445 31.2049 38.2992 31.2267C37.6144 31.2393 37.1268 30.986 37.125 30.284C37.1232 29.6345 37.6199 29.3287 38.2298 29.3251C40.7515 29.307 43.2733 29.307 45.7932 29.3251C46.447 29.3287 46.9583 29.6598 46.9236 30.351C46.8925 30.9842 46.4232 31.2411 45.7713 31.2285C44.526 31.2031 43.2806 31.2212 42.0352 31.2212Z" fill="black"/>
<path d="M43.1366 27.635C42.1031 27.635 41.0677 27.644 40.0342 27.6314C39.4352 27.6241 39.0317 27.3491 39.0207 26.7159C39.0098 26.079 39.4444 25.7533 40.0049 25.7443C42.1341 25.7099 44.2633 25.7081 46.3925 25.7479C46.9439 25.7587 47.3785 26.0772 47.3566 26.7303C47.3347 27.3817 46.9184 27.6241 46.3322 27.6332C45.2676 27.6476 44.203 27.6368 43.1384 27.6368V27.6332L43.1366 27.635Z" fill="black"/>
<path d="M32.0176 27.6387C30.984 27.6387 29.9487 27.6496 28.9151 27.6351C28.3271 27.6261 27.9163 27.38 27.898 26.7269C27.8798 26.0719 28.3107 25.7571 28.864 25.748C30.9913 25.71 33.1223 25.7119 35.2497 25.748C35.8084 25.7571 36.2449 26.0846 36.2284 26.7232C36.212 27.3547 35.8066 27.6279 35.2077 27.6351C34.1431 27.646 33.0785 27.6387 32.0139 27.6406L32.0176 27.6387Z" fill="black"/>
<path d="M43.4781 18.6032C44.5098 18.6032 45.5397 18.6122 46.5714 18.5995C47.1868 18.5923 47.5794 18.8528 47.6196 19.468C47.6598 20.094 47.2306 20.4631 46.6773 20.4758C44.5263 20.521 42.3715 20.5391 40.2223 20.4504C39.8826 20.436 39.3403 19.8498 39.291 19.477C39.207 18.851 39.7384 18.5832 40.3866 18.5977C41.4165 18.6194 42.4482 18.6032 43.4799 18.605L43.4781 18.6032Z" fill="black"/>
<path d="M32.1151 18.603C33.1194 18.603 34.1219 18.6139 35.1263 18.5994C35.7197 18.5904 36.1616 18.7804 36.2237 19.4154C36.2894 20.0939 35.8439 20.472 35.2468 20.4829C33.1194 20.5263 30.9884 20.5263 28.8611 20.4811C28.2622 20.4684 27.833 20.0903 27.9079 19.4009C27.9773 18.746 28.4301 18.5922 29.0127 18.5994C30.0462 18.6103 31.0816 18.603 32.1151 18.603Z" fill="black"/>
<path d="M32.1333 22.1567C32.829 22.1567 33.5247 22.1404 34.2205 22.1621C34.8157 22.182 35.2193 22.4987 35.2303 23.0994C35.2412 23.7037 34.823 24.0529 34.246 24.0673C32.7943 24.1035 31.3371 24.1433 29.8927 24.0384C29.5275 24.0112 28.9797 23.4847 28.9067 23.1138C28.7843 22.486 29.3413 22.1784 29.953 22.1567C30.6779 22.1296 31.4047 22.1513 32.1315 22.1513C32.1315 22.1531 32.1315 22.1567 32.1315 22.1585L32.1333 22.1567Z" fill="black"/>
<path d="M32.1273 14.9918C32.823 14.9918 33.5388 14.8978 34.209 15.028C34.587 15.1004 35.08 15.4858 35.1859 15.8295C35.3594 16.3904 34.9084 16.85 34.3405 16.8717C32.8285 16.9314 31.3092 16.9567 29.8046 16.85C29.4686 16.8265 28.9628 16.2276 28.9135 15.8458C28.8404 15.2886 29.3316 14.9774 29.947 14.9882C30.6738 15.0009 31.4005 14.9918 32.1273 14.9918Z" fill="black"/>
<path d="M31.3495 31.2176C30.6191 31.2176 29.8905 31.2121 29.1601 31.2176C28.5648 31.223 28.1466 30.8901 28.2343 30.3618C28.2964 29.9891 28.7383 29.4065 29.0396 29.3866C30.5826 29.2889 32.1384 29.2889 33.6795 29.392C33.9863 29.4119 34.4793 30.0325 34.4702 30.3636C34.4629 30.6549 33.9041 31.1072 33.5298 31.176C32.8249 31.3062 32.0781 31.214 31.3477 31.214L31.3495 31.2176Z" fill="black"/>
</g>
<defs>
<clipPath id="clip0_196_952">
<rect width="57" height="54" fill="white"/>
</clipPath>
</defs>
</svg>
